<?xml version="1.0" encoding="UTF-8"?>
<svg id="Capa_2" data-name="Capa 2" xmlns="http://www.w3.org/2000/svg" viewBox="0 0 1199.41 415.64">
  <defs>
    <style>
      .cls-1 {
        fill: #00abc8;
      }

      .cls-2 {
        fill: #00758d;
      }
    </style>
  </defs>
  <g id="Capa_1-2" data-name="Capa 1">
    <g>
      <g>
        <path class="cls-2" d="M52.48,268.19c5.03,0,9.31-1.79,12.83-5.36,3.53-3.57,5.29-7.87,5.29-12.9s-1.77-9.3-5.29-12.83c-3.53-3.53-7.81-5.29-12.83-5.29s-9.33,1.76-12.9,5.29c-3.57,3.53-5.36,7.81-5.36,12.83s1.79,9.33,5.36,12.9c3.57,3.57,7.87,5.36,12.9,5.36Z"/>
        <path class="cls-2" d="M483.03,292.99c-7.23-4.15-15.44-6.22-24.61-6.22-20.82,0-39.21,9.88-55.17,29.64-14.55,18.08-21.83,36.78-21.83,56.1,0,4.73.44,9.04,1.32,12.94-.34.45-.68.93-1.01,1.35-4.59,5.91-8.17,8.86-10.73,8.86-.88,0-1.83-.28-2.85-.85-1.01-.56-1.52-1.34-1.52-2.33,0-1.06.46-2.87,1.39-5.45.93-2.58,1.92-5.06,2.98-7.46l14.38-42.99c1.68-5.95,2.6-9.41,2.78-10.37,1.67-6.91,2.51-12.43,2.51-16.56,0-7.29-2.01-12.93-6.03-16.92-4.02-3.98-10.22-5.97-18.61-5.97-12.47,0-24.51,4.76-36.12,14.27-6.99,5.73-16.12,15.68-27.41,29.87,1.48-4.72,2.66-8.65,3.53-11.79,1.59-5.66,2.38-10.56,2.38-14.72,0-5.48-1.68-9.79-5.03-12.92-3.35-3.14-7.54-4.71-12.57-4.71-10.85,0-21.17,4.94-30.96,14.82-6,6.09-14.91,18.08-26.72,35.99l-.93-.66,16.33-50.15c-11.85,2.29-20.35,3.79-25.52,4.5-8.02,1.15-17.74,2.07-29.15,2.78v7.14c6.17.35,10.17.88,11.99,1.58,1.82.7,2.73,2.49,2.73,5.38,0,1.93-.22,3.92-.67,5.98-.45,2.06-1.38,5.63-2.81,10.71l-8.84,32.36c-7.43,12-17.84,27.29-19.53,29.46-4.68,6-8.2,9-10.58,9-.97,0-1.94-.42-2.91-1.26-.97-.84-1.46-2.05-1.46-3.64,0-1.67,4.02-14.2,12.07-37.58,7.94-23.46,11.91-38.63,11.91-45.51,0-7.41-2.02-12.75-6.06-16.01-4.04-3.26-8.94-4.89-14.71-4.89-6.21,0-12.14,1.61-17.77,4.83-5.64,3.22-11.03,7.52-16.17,12.9-5.24,5.29-10.74,12.19-16.5,20.71-5.18,7.64-7.85,11.67-8.02,12.09l-.68-.38,16.06-50.14c-12.37,2.38-21.66,4.01-27.89,4.89-6.23.88-14.95,1.68-26.17,2.38v7.14c5.82.18,9.75.66,11.78,1.46,2.03.79,3.04,2.82,3.04,6.09,0,1.5-.44,4.15-1.32,7.94-.44,2.03-1.15,4.81-2.12,8.34l-9.46,34.56c-7.27,9.71-19.32,24.94-22.34,28.41-4.07,4.68-7.47,7.01-10.21,7.01-1.06,0-2.03-.29-2.91-.86-.88-.57-1.32-1.83-1.32-3.77s.79-6.17,2.38-12.7c.62-2.56,1.81-7.14,3.57-13.76l21.04-77.14-11.56,2.25c-4.03.79-10.88,1.74-20.56,2.84-9.68,1.1-17.06,1.83-22.14,2.18v7.14c6.08.26,10.26.84,12.55,1.72,2.29.88,3.44,3.13,3.44,6.75,0,.62-.07,1.28-.2,1.98-.13.71-.29,1.41-.46,2.12l-16.66,60.86c-1.24,4.5-2.16,8.12-2.78,10.85-1.06,4.76-1.59,8.25-1.59,10.45,0,6.26,1.96,10.92,5.89,13.96,3.93,3.04,8.37,4.57,13.31,4.57,8.75,0,16.96-3.71,24.64-11.11,2.96-2.85,12.45-14.97,21.26-26.77l-9.57,34.97h32.63c4.3-15.96,8-28.71,11.1-38.24,3.1-9.53,6.97-18.92,11.61-28.18,4.29-8.55,9.81-17.13,16.55-25.73,6.74-8.6,12.87-12.9,18.39-12.9,1.58,0,3.04.4,4.4,1.19,1.36.79,2.04,2.21,2.04,4.23,0,.71-.09,1.41-.26,2.12-.18.71-.4,1.54-.66,2.51l-12.38,40.49c-2.39,7.85-4.51,15.48-6.36,22.89-1.85,7.41-2.78,13.06-2.78,16.94,0,6.09,1.9,10.54,5.72,13.36,3.81,2.82,8.11,4.23,12.9,4.23,8.97,0,17.46-4.1,25.47-12.3,2.46-2.54,9.85-14.18,17.22-26.16l-9.71,35.55h32.55c4.05-14.26,7.31-25.13,9.77-32.62,3.69-12.36,7.1-21.98,10.22-28.87,5.83-12.89,11.99-23.37,18.47-31.45,6.49-8.08,11.7-12.12,15.64-12.12,1.23,0,2.37.33,3.41.99,1.04.66,1.56,2.23,1.56,4.72,0,1.57-.22,3.21-.66,4.91-.44,1.7-1.02,3.58-1.72,5.65l-24.01,88.79h32.55c8.69-27.08,14.11-43.22,16.26-48.42,2.15-5.2,4.33-9.61,6.53-13.23,5.95-10.06,13.36-19.8,22.23-29.24,8.87-9.44,16.83-14.16,23.89-14.16,2.53,0,4.46.77,5.79,2.3,1.1,1.54,1.65,3.43,1.65,5.67,0,.83-.07,1.69-.2,2.57-.13.89-.29,1.74-.46,2.57l-11.15,41.4c-2.47,6.73-4.46,12.69-5.95,17.86-2.38,8.45-3.57,15.02-3.57,19.7,0,5.66,1.98,9.73,5.95,12.19,3.97,2.46,8.25,3.69,12.84,3.69,9,0,17.56-4.1,25.68-12.3,2.1-2.14,4.42-4.93,6.93-8.29,2.33,4.84,5.62,8.76,9.9,11.73,9.39,6.53,19.34,9.79,29.84,9.79,20.55,0,38.81-9.83,54.78-29.5,14.64-18.08,21.96-36.74,21.96-55.97,0-17.38-6.35-29.68-19.05-36.91ZM458.29,368.01c-9,25.93-19.14,38.9-30.43,38.9-6.09,0-10.23-2.51-12.44-7.54-1.15-2.65-1.72-6.3-1.72-10.98,0-13.85,3.4-31.22,10.19-52.13,8.82-27.52,19.71-41.28,32.68-41.28,5.56,0,9.35,2.21,11.38,6.62,1.06,2.38,1.59,5.69,1.59,9.92,0,15.88-3.75,34.71-11.25,56.5Z"/>
        <path class="cls-2" d="M610.33,295.77c-5.57-6-12.76-9-21.58-9-7.22,0-13.94,1.9-20.18,5.71-6.24,3.81-12.12,9.56-17.64,17.27l23.31-87.36-28.17,4.63-28.04,3.44v7.15c6.62,0,11.09.44,13.43,1.32,2.34.88,3.51,3.26,3.51,7.14,0,1.32-.18,2.86-.53,4.63-.35,1.76-.93,4.1-1.72,7l-36.97,135.05c-.88,3.79-1.32,6-1.32,6.62,0,3.09,3.79,6.53,11.38,10.32,7.59,3.79,15.84,5.69,24.75,5.69,24.17,0,45.3-10.72,63.38-32.15,16.5-19.58,24.75-39.91,24.75-61,0-11.64-2.78-20.46-8.35-26.46ZM572.92,371.19c-10.06,23.02-22.28,34.53-36.67,34.53-3.79,0-6.24-.86-7.34-2.58-1.1-1.72-1.65-3.29-1.65-4.7,0-3.09,1.9-11.55,5.69-25.4,3.79-13.85,6.92-24.21,9.39-31.09,2.94-8.29,6.14-15.3,9.62-21.04,6.41-10.5,13.09-15.74,20.03-15.74,4.27,0,7.5,1.41,9.68,4.23,2.18,2.82,3.27,7.54,3.27,14.16,0,13.58-4.01,29.46-12.02,47.63Z"/>
        <path class="cls-2" d="M670.49,268.19c5.03,0,9.31-1.79,12.83-5.36,3.53-3.57,5.29-7.87,5.29-12.9s-1.77-9.3-5.29-12.83c-3.53-3.53-7.81-5.29-12.83-5.29s-9.33,1.76-12.9,5.29c-3.57,3.53-5.36,7.81-5.36,12.83s1.79,9.33,5.36,12.9c3.57,3.57,7.87,5.36,12.9,5.36Z"/>
        <path class="cls-2" d="M793.96,268.19c5.03,0,9.31-1.79,12.83-5.36,3.53-3.57,5.29-7.87,5.29-12.9s-1.77-9.3-5.29-12.83c-3.53-3.53-7.81-5.29-12.83-5.29s-9.33,1.76-12.9,5.29c-3.57,3.53-5.36,7.81-5.36,12.83s1.79,9.33,5.36,12.9c3.57,3.57,7.87,5.36,12.9,5.36Z"/>
        <path class="cls-2" d="M1069.54,268.19c5.03,0,9.31-1.79,12.83-5.36,3.53-3.57,5.29-7.87,5.29-12.9s-1.77-9.3-5.29-12.83c-3.53-3.53-7.81-5.29-12.83-5.29s-9.33,1.76-12.9,5.29c-3.57,3.53-5.36,7.81-5.36,12.83s1.79,9.33,5.36,12.9c3.57,3.57,7.87,5.36,12.9,5.36Z"/>
        <path class="cls-2" d="M1078.94,366.7l.02-.04c0-.14-.01-.1-.02.04Z"/>
        <path class="cls-2" d="M1180.36,292.99c-7.23-4.15-15.44-6.22-24.61-6.22-20.82,0-39.21,9.88-55.17,29.64-13.44,16.7-20.66,33.92-21.69,51.66.02-.63.04-1.15.06-1.37l-3.72,6.6c-3.1,5.12-6.68,10.01-10.75,14.69-4.07,4.68-7.47,7.01-10.21,7.01-1.06,0-2.03-.29-2.91-.86-.88-.57-1.32-1.83-1.32-3.77s.79-6.17,2.38-12.7c.62-2.56,1.81-7.14,3.57-13.76l21.04-77.14-11.56,2.25c-4.03.79-10.88,1.74-20.56,2.84-6.43.73-11.82,1.3-16.21,1.7-.3-.51-.62-1.01-.97-1.5-2.51-3.53-6.41-5.29-11.7-5.29-7.58,0-15.47,5.47-23.66,16.41-4.67,6.26-10.89,16.89-18.64,31.89l-1.19-.26,15.07-48.03c-12.36,2.29-21.11,3.79-26.25,4.5-7.94,1.15-17.68,2.07-29.23,2.78v7.14c5.38,0,9.17.49,11.38,1.46,2.2.97,3.31,3.13,3.31,6.48,0,3.79-2.74,15.7-8.2,35.72-1.05,4.14-2.18,8.5-3.37,13-4.37,7.35-16.87,23.63-18.81,26.1-2.12,2.69-3.62,4.52-4.5,5.49-1.85,2.21-3.53,3.9-5.03,5.09-1.5,1.19-3.04,1.79-4.63,1.79-.88,0-1.68-.31-2.38-.93-.71-.62-1.06-1.72-1.06-3.31,0-3.88,1.19-10.36,3.57-19.45,1.05-4.76,2.84-11.64,5.35-20.64l17.65-63.38-28.29,1.98-4.59,14.42c-1.5-5.82-3.22-9.97-5.16-12.44-3.26-4.06-8.33-6.09-15.2-6.09-16.92,0-33.57,10.72-49.96,32.15-14.55,19.18-22.41,37.95-23.61,56.31-2.85,4.51-6.06,8.86-9.68,13.02-4.07,4.68-7.47,7.01-10.21,7.01-1.06,0-2.03-.29-2.91-.86-.88-.57-1.32-1.83-1.32-3.77s.79-6.17,2.38-12.7c.62-2.56,1.81-7.14,3.57-13.76l21.04-77.14-11.56,2.25c-4.03.79-10.88,1.74-20.56,2.84-9.68,1.1-17.06,1.83-22.14,2.18v7.14c6.08.26,10.26.84,12.55,1.72,2.29.88,3.44,3.13,3.44,6.75,0,.62-.07,1.28-.2,1.98-.13.71-.29,1.41-.46,2.12l-11.37,41.52c-6.47,9.43-20.75,29.01-24.19,32.84-4.12,4.59-7.5,6.88-10.15,6.88-.79,0-1.68-.31-2.65-.93-.97-.62-1.46-1.85-1.46-3.71,0-2.12.79-6.4,2.38-12.84.44-1.94,1.63-6.49,3.57-13.64l39.19-141.68c-14.76,2.73-24.5,4.43-29.23,5.09-4.73.66-13.8,1.65-27.21,2.98v7.14c6-.18,10.32.18,12.97,1.06,2.65.88,3.97,3.31,3.97,7.28,0,1.32-.18,2.92-.53,4.77-.35,1.85-.93,4.28-1.72,7.28l-26.72,97.61c-7.65,10.91-20.87,29.04-23.94,32.56-4.07,4.68-7.47,7.01-10.21,7.01-1.06,0-2.03-.29-2.91-.86-.88-.57-1.32-1.83-1.32-3.77s.79-6.17,2.38-12.7c.62-2.56,1.81-7.14,3.57-13.76l21.04-77.14-11.56,2.25c-4.03.79-10.88,1.74-20.56,2.84-9.68,1.1-17.06,1.83-22.14,2.18v7.14c6.08.26,10.26.84,12.55,1.72,2.29.88,3.44,3.13,3.44,6.75,0,.62-.07,1.28-.2,1.98-.13.71-.29,1.41-.46,2.12l-16.66,60.86c-1.24,4.5-2.16,8.12-2.78,10.85-1.06,4.76-1.59,8.25-1.59,10.45,0,6.26,1.96,10.92,5.89,13.96,3.93,3.04,8.37,4.57,13.31,4.57,8.75,0,16.96-3.71,24.64-11.11,3.05-2.94,13.4-17.13,22.67-30.25l-.42,1.52c-1.24,4.59-2.12,8.08-2.65,10.46-1.15,4.94-1.72,8.56-1.72,10.85,0,5.56,1.83,10.04,5.49,13.44,3.66,3.4,8.01,5.1,13.05,5.1,9.27,0,18.02-3.97,26.23-11.91,3.33-3.21,13.3-17.36,21.89-29.99l-.57,2.07c-1.24,4.5-2.16,8.12-2.78,10.85-1.06,4.76-1.59,8.25-1.59,10.45,0,6.26,1.96,10.92,5.89,13.96,3.93,3.04,8.37,4.57,13.31,4.57,8.75,0,16.96-3.71,24.64-11.11,3.39-3.26,7.88-8.77,13.45-16.47.96,9.25,3.89,16.09,8.88,20.43,6.17,5.38,12.83,8.07,19.98,8.07,7.94,0,15.15-2.51,21.63-7.54,6.48-5.03,12.11-11.16,16.87-18.39,2.12-3.09,3.68-5.42,4.7-7.01.43-.67.71-1.13.89-1.45-2.22,8.67-3.34,14.15-3.34,16.4,0,6,1.94,10.54,5.82,13.63,3.88,3.09,7.89,4.63,12.04,4.63,6.79,0,13.52-3.04,20.18-9.13,5.51-5.03,16.75-21.46,24.62-33.09-3.19,11.69-6.75,24.38-10.71,38.12h32.68c1.85-5.38,4.72-14.24,8.6-26.59,3.88-12.35,7.15-21.87,9.79-28.58,3.79-9.7,8.47-19.23,14.02-28.58,5.56-9.35,10.06-14.03,13.5-14.03.79,0,1.43.18,1.92.53.48.35.95.79,1.39,1.32l2.51,3.18c1.32,1.77,2.93,3.09,4.83,3.97,1.9.88,3.95,1.32,6.15,1.32,4.94,0,8.8-2.07,11.58-6.22,2.78-4.15,4.17-8.82,4.17-14.02,0-.63-.04-1.26-.09-1.87,1.63.26,2.95.58,3.92.95,2.29.88,3.44,3.13,3.44,6.75,0,.62-.07,1.28-.2,1.98-.13.71-.29,1.41-.46,2.12l-16.66,60.86c-1.24,4.5-2.16,8.12-2.78,10.85-1.06,4.76-1.59,8.25-1.59,10.45,0,6.26,1.96,10.92,5.89,13.96,3.93,3.04,8.37,4.57,13.31,4.57,8.75,0,16.96-3.71,24.64-11.11,4.31-4.15,10.42-11.94,18.26-23.28,1.33,11.6,5.88,20.11,13.67,25.53,9.39,6.53,19.34,9.79,29.84,9.79,20.55,0,38.81-9.83,54.78-29.5,14.64-18.08,21.96-36.74,21.96-55.97,0-17.38-6.35-29.68-19.05-36.91ZM874.04,360.21c-11.37,23.9-21.54,35.81-30.53,35.72-3.52,0-6.37-1.59-8.53-4.76-2.16-3.18-3.24-6.92-3.24-11.25,0-10.94,4.54-26.68,13.61-47.23,10.31-23.2,20.35-34.8,30.14-34.8,4.58,0,7.71,2.03,9.38,6.09.88,2.21,1.32,5.07,1.32,8.6,0,11.73-4.05,27.61-12.16,47.63ZM1155.62,368.01c-9,25.93-19.14,38.9-30.43,38.9-6.09,0-10.23-2.51-12.44-7.54-1.15-2.65-1.72-6.3-1.72-10.98,0-13.85,3.4-31.22,10.19-52.13,8.82-27.52,19.71-41.28,32.68-41.28,5.56,0,9.35,2.21,11.38,6.62,1.06,2.38,1.59,5.69,1.59,9.92,0,15.88-3.75,34.71-11.25,56.5Z"/>
      </g>
      <g>
        <path class="cls-1" d="M120.34,177.05c8.69,5.38,18.82,8.06,30.4,8.06s20.51-2.56,28.29-7.69c4.62-3.04,8.58-6.9,11.91-11.52v14.74c0,6.29-1.45,11.79-4.34,16.5-2.9,4.71-7.03,8.35-12.41,10.92-5.38,2.56-11.71,3.85-18.98,3.85s-14.89-1.2-21.84-3.6c-6.95-2.4-13.49-5.75-19.6-10.05l-14.14,25.81c7.77,5.13,16.58,9.31,26.43,12.53,9.84,3.23,20.39,4.84,31.64,4.84,14.39,0,26.88-2.52,37.47-7.57,10.58-5.05,18.86-12.2,24.81-21.46,5.96-9.27,8.93-20.18,8.93-32.75V58.81h-37.97v18c-3.45-4.74-7.58-8.68-12.41-11.8-7.94-5.13-17.54-7.61-28.78-7.44-11.25,0-21.22,2.69-29.9,8.06-8.69,5.38-15.43,12.74-20.22,22.08-4.8,9.35-7.2,20.39-7.2,33.13s2.48,23.95,7.44,33.62c4.96,9.68,11.79,17.21,20.47,22.58ZM132.25,103.1c2.56-5.37,6.24-9.55,11.04-12.53,4.8-2.98,10.26-4.47,16.38-4.47s11.54,1.49,16.25,4.47c4.71,2.98,8.39,7.16,11.04,12.53,2.64,5.38,3.97,11.62,3.97,18.73s-1.33,13.11-3.97,18.49c-2.65,5.38-6.33,9.55-11.04,12.53-4.71,2.98-10.14,4.47-16.25,4.47s-11.79-1.49-16.5-4.47c-4.72-2.98-8.36-7.15-10.92-12.53-2.57-5.37-3.93-11.54-4.09-18.49.16-7.11,1.53-13.36,4.09-18.73Z"/>
        <path class="cls-1" d="M285.5,128.04c0-7.77,1.78-14.47,5.33-20.1,3.56-5.62,8.69-9.92,15.38-12.9,6.7-2.98,14.52-4.05,23.45-3.23v-34.49c-10.92,0-20.43,2.73-28.54,8.19-6.36,4.29-11.56,10.07-15.63,17.31v-24.01h-38.21v133.25h38.21v-64.02Z"/>
        <path class="cls-1" d="M363.94,184.87c10.83,5.63,23.36,8.44,37.59,8.44s26.71-2.81,37.47-8.44c10.75-5.62,19.11-13.56,25.06-23.82,5.96-10.25,8.93-22.17,8.93-35.73s-2.98-25.43-8.93-35.61c-5.96-10.17-14.31-18.07-25.06-23.7-10.76-5.62-23.24-8.44-37.47-8.44s-26.76,2.81-37.59,8.44c-10.84,5.63-19.23,13.52-25.19,23.7-5.96,10.17-8.93,22.05-8.93,35.61s2.98,25.48,8.93,35.73c5.96,10.26,14.35,18.2,25.19,23.82ZM372.25,106.08c2.81-5.71,6.74-10.13,11.79-13.28,5.04-3.14,10.88-4.71,17.49-4.71s12.41,1.57,17.37,4.71c4.96,3.14,8.85,7.57,11.66,13.28,2.81,5.71,4.22,12.28,4.22,19.73s-1.41,14.02-4.22,19.73c-2.81,5.71-6.7,10.17-11.66,13.4-4.96,3.23-10.76,4.84-17.37,4.84s-12.45-1.61-17.49-4.84c-5.05-3.23-8.98-7.69-11.79-13.4-2.81-5.71-4.22-12.28-4.22-19.73s1.4-14.02,4.22-19.73Z"/>
        <polygon class="cls-1" points="552.56 192.06 581.35 102.23 609.88 192.06 648.1 192.06 696.73 58.81 659.01 58.81 629.73 155.58 600.45 58.81 562.98 58.81 534.2 155.58 504.42 58.81 465.46 58.81 514.35 192.06 552.56 192.06"/>
        <path class="cls-1" d="M725.27,41.69c6.12,0,11.12-1.99,15.01-5.96,3.88-3.97,5.83-8.93,5.83-14.89s-1.95-10.92-5.83-14.89c-3.89-3.97-8.89-5.96-15.01-5.96-5.79,0-10.67,1.98-14.64,5.96-3.97,3.97-5.96,8.93-5.96,14.89s1.99,10.92,5.96,14.89c3.97,3.97,8.85,5.96,14.64,5.96Z"/>
        <rect class="cls-1" x="706.16" y="58.81" width="38.21" height="133.25"/>
        <path class="cls-1" d="M800.88,126.3c0-10.09,2.73-18.44,8.19-25.06,5.46-6.61,12.9-10.01,22.33-10.17,8.1,0,14.52,2.48,19.23,7.44,4.71,4.96,7.07,11.83,7.07,20.6v72.95h38.21v-83.62c0-10.42-1.99-19.44-5.96-27.05-3.97-7.61-9.64-13.52-17-17.74-7.36-4.22-16.01-6.33-25.93-6.33-11.41,0-21.3,2.52-29.65,7.57-6.75,4.08-12.24,9.86-16.5,17.28v-23.36h-38.21v133.25h38.21v-65.76Z"/>
        <path class="cls-1" d="M937.98,177.05c8.69,5.38,18.82,8.06,30.4,8.06s20.51-2.56,28.29-7.69c4.62-3.04,8.58-6.9,11.91-11.52v14.74c0,6.29-1.45,11.79-4.34,16.5-2.9,4.71-7.03,8.35-12.41,10.92-5.38,2.56-11.71,3.85-18.98,3.85s-14.89-1.2-21.84-3.6c-6.95-2.4-13.49-5.75-19.6-10.05l-14.14,25.81c7.77,5.13,16.58,9.31,26.43,12.53,9.84,3.23,20.39,4.84,31.64,4.84,14.39,0,26.88-2.52,37.47-7.57,10.58-5.05,18.86-12.2,24.81-21.46,5.96-9.27,8.93-20.18,8.93-32.75V58.81h-37.97v18c-3.45-4.74-7.58-8.68-12.41-11.8-7.94-5.13-17.54-7.61-28.78-7.44-11.25,0-21.22,2.69-29.9,8.06-8.69,5.38-15.43,12.74-20.22,22.08-4.8,9.35-7.2,20.39-7.2,33.13s2.48,23.95,7.44,33.62c4.96,9.68,11.79,17.21,20.47,22.58ZM949.89,103.1c2.56-5.37,6.24-9.55,11.04-12.53,4.8-2.98,10.26-4.47,16.38-4.47s11.54,1.49,16.25,4.47c4.71,2.98,8.39,7.16,11.04,12.53,2.64,5.38,3.97,11.62,3.97,18.73s-1.33,13.11-3.97,18.49c-2.65,5.38-6.33,9.55-11.04,12.53-4.71,2.98-10.14,4.47-16.25,4.47s-11.79-1.49-16.5-4.47c-4.72-2.98-8.36-7.15-10.92-12.53-2.57-5.37-3.93-11.54-4.09-18.49.16-7.11,1.53-13.36,4.09-18.73Z"/>
      </g>
    </g>
  </g>
</svg>