<?xml version="1.0" encoding="UTF-8"?>
<svg id="Capa_2" data-name="Capa 2" xmlns="http://www.w3.org/2000/svg" viewBox="0 0 1283.72 144.15">
  <defs>
    <style>
      .cls-1 {
        fill: #00abc8;
      }

      .cls-2 {
        fill: #00758d;
      }
    </style>
  </defs>
  <g id="Capa_1-2" data-name="Capa 1">
    <g>
      <g>
        <path class="cls-2" d="M585.41,30.88c3.06,0,5.67-1.09,7.81-3.26,2.15-2.18,3.22-4.79,3.22-7.85s-1.08-5.67-3.22-7.81c-2.15-2.15-4.75-3.22-7.81-3.22s-5.68,1.07-7.85,3.22c-2.18,2.15-3.26,4.75-3.26,7.81s1.09,5.68,3.26,7.85c2.17,2.18,4.79,3.26,7.85,3.26Z"/>
        <path class="cls-2" d="M847.55,43.1c-4.4-2.52-9.4-3.79-14.98-3.79-12.68,0-23.87,6.01-33.59,18.04-8.86,11.01-13.29,22.39-13.29,34.16,0,2.88.27,5.51.8,7.88-.21.27-.42.56-.62.82-2.8,3.6-4.98,5.4-6.54,5.4-.54,0-1.12-.17-1.73-.52-.62-.34-.93-.82-.93-1.42,0-.64.28-1.75.85-3.32.56-1.57,1.17-3.08,1.81-4.54l8.75-26.18c1.02-3.62,1.58-5.73,1.69-6.31,1.02-4.21,1.53-7.57,1.53-10.08,0-4.44-1.22-7.87-3.67-10.3-2.45-2.42-6.23-3.64-11.33-3.64-7.59,0-14.92,2.9-21.99,8.69-4.25,3.49-9.82,9.55-16.69,18.19.9-2.87,1.62-5.26,2.15-7.18.97-3.44,1.45-6.43,1.45-8.96,0-3.34-1.02-5.96-3.06-7.87-2.04-1.91-4.59-2.87-7.65-2.87-6.61,0-12.89,3.01-18.85,9.02-3.65,3.71-9.08,11.01-16.27,21.91l-.56-.4,9.94-30.53c-7.21,1.4-12.39,2.31-15.54,2.74-4.88.7-10.8,1.26-17.75,1.69v4.35c3.76.21,6.19.53,7.3.96,1.11.43,1.66,1.52,1.66,3.28,0,1.17-.14,2.39-.41,3.64-.27,1.25-.84,3.43-1.71,6.52l-5.38,19.7c-4.52,7.3-10.86,16.62-11.89,17.94-2.85,3.65-4.99,5.48-6.44,5.48-.59,0-1.18-.25-1.77-.77-.59-.51-.89-1.25-.89-2.21,0-1.02,2.45-8.65,7.35-22.88,4.83-14.28,7.25-23.52,7.25-27.71,0-4.51-1.23-7.76-3.69-9.75-2.46-1.99-5.44-2.98-8.95-2.98-3.78,0-7.39.98-10.82,2.94-3.43,1.96-6.71,4.58-9.85,7.85-3.19,3.22-6.54,7.43-10.05,12.61-3.15,4.65-4.78,7.1-4.88,7.36l-.42-.23,9.78-30.53c-7.53,1.45-13.19,2.44-16.98,2.98-3.79.54-9.1,1.02-15.94,1.45v4.35c3.54.11,5.93.4,7.17.89,1.23.48,1.85,1.72,1.85,3.71,0,.91-.27,2.52-.81,4.83-.27,1.24-.7,2.93-1.29,5.08l-5.76,21.04c-4.43,5.91-11.76,15.19-13.6,17.3-2.48,2.85-4.55,4.27-6.22,4.27-.65,0-1.24-.17-1.77-.52-.54-.35-.81-1.11-.81-2.3s.48-3.76,1.45-7.73c.38-1.56,1.1-4.35,2.18-8.38l12.81-46.96-7.04,1.37c-2.45.48-6.63,1.06-12.52,1.73-5.89.67-10.38,1.12-13.48,1.33v4.35c3.7.16,6.25.51,7.64,1.05,1.39.54,2.09,1.91,2.09,4.11,0,.38-.04.78-.12,1.21-.08.43-.17.86-.28,1.29l-10.14,37.06c-.75,2.74-1.32,4.94-1.69,6.61-.64,2.9-.97,5.02-.97,6.36,0,3.81,1.2,6.65,3.59,8.5,2.39,1.85,5.09,2.78,8.11,2.78,5.32,0,10.33-2.26,15-6.77,1.8-1.74,7.58-9.11,12.94-16.3l-5.83,21.29h19.87c2.62-9.72,4.87-17.48,6.76-23.28,1.89-5.8,4.24-11.52,7.07-17.16,2.61-5.21,5.97-10.43,10.08-15.67,4.11-5.24,7.84-7.85,11.2-7.85.96,0,1.85.24,2.68.72.83.48,1.24,1.34,1.24,2.58,0,.43-.05.86-.16,1.29-.11.43-.24.94-.4,1.53l-7.54,24.65c-1.46,4.78-2.75,9.42-3.87,13.94-1.13,4.51-1.69,7.95-1.69,10.31,0,3.71,1.16,6.42,3.48,8.14,2.32,1.72,4.94,2.58,7.85,2.58,5.46,0,10.63-2.5,15.51-7.49,1.5-1.54,6-8.63,10.49-15.93l-5.91,21.64h19.82c2.46-8.68,4.45-15.3,5.95-19.86,2.25-7.52,4.32-13.38,6.22-17.58,3.55-7.85,7.3-14.23,11.25-19.15,3.95-4.92,7.12-7.38,9.52-7.38.75,0,1.44.2,2.07.61s.95,1.36.95,2.87c0,.96-.13,1.95-.4,2.99-.27,1.03-.62,2.18-1.05,3.44l-14.62,54.06h19.82c5.29-16.49,8.59-26.31,9.9-29.48,1.31-3.17,2.63-5.85,3.98-8.06,3.62-6.12,8.14-12.06,13.54-17.8,5.4-5.75,10.25-8.62,14.54-8.62,1.54,0,2.72.47,3.52,1.4.67.94,1.01,2.09,1.01,3.45,0,.5-.04,1.03-.12,1.56-.08.54-.17,1.06-.28,1.57l-6.79,25.21c-1.5,4.1-2.71,7.72-3.63,10.87-1.45,5.15-2.17,9.15-2.17,12,0,3.45,1.21,5.92,3.63,7.42,2.42,1.5,5.02,2.25,7.82,2.25,5.48,0,10.69-2.5,15.64-7.49,1.28-1.3,2.69-3,4.22-5.05,1.42,2.95,3.42,5.33,6.03,7.14,5.72,3.97,11.77,5.96,18.17,5.96,12.51,0,23.63-5.99,33.35-17.96,8.91-11.01,13.37-22.37,13.37-34.08,0-10.58-3.87-18.07-11.6-22.48ZM832.49,88.77c-5.48,15.79-11.65,23.68-18.53,23.68-3.71,0-6.23-1.53-7.57-4.59-.7-1.61-1.05-3.84-1.05-6.69,0-8.43,2.07-19.01,6.2-31.74,5.37-16.76,12-25.13,19.9-25.13,3.38,0,5.69,1.34,6.93,4.03.64,1.45.97,3.46.97,6.04,0,9.67-2.28,21.13-6.85,34.4Z"/>
        <path class="cls-2" d="M925.06,44.79c-3.39-3.65-7.77-5.48-13.14-5.48-4.39,0-8.49,1.16-12.28,3.48-3.8,2.32-7.38,5.82-10.74,10.51L903.09.12l-17.15,2.82-17.07,2.09v4.35c4.03,0,6.75.27,8.18.8,1.42.54,2.13,1.98,2.13,4.34,0,.81-.11,1.74-.32,2.82-.22,1.07-.56,2.49-1.05,4.26l-22.51,82.23c-.54,2.31-.81,3.65-.81,4.03,0,1.88,2.31,3.98,6.93,6.28,4.62,2.31,9.64,3.46,15.07,3.46,14.72,0,27.58-6.53,38.59-19.58,10.04-11.92,15.07-24.3,15.07-37.14,0-7.09-1.7-12.46-5.08-16.11ZM902.28,90.71c-6.12,14.02-13.57,21.03-22.32,21.03-2.31,0-3.8-.52-4.47-1.57-.67-1.05-1.01-2-1.01-2.86,0-1.88,1.15-7.03,3.46-15.47,2.31-8.43,4.22-14.74,5.72-18.93,1.79-5.05,3.74-9.32,5.85-12.81,3.9-6.39,7.97-9.59,12.2-9.59,2.6,0,4.57.86,5.89,2.58,1.33,1.72,1.99,4.59,1.99,8.62,0,8.27-2.44,17.94-7.32,29Z"/>
        <path class="cls-2" d="M961.69,30.88c3.06,0,5.67-1.09,7.81-3.26,2.15-2.18,3.22-4.79,3.22-7.85s-1.07-5.67-3.22-7.81c-2.15-2.15-4.75-3.22-7.81-3.22s-5.68,1.07-7.85,3.22c-2.18,2.15-3.26,4.75-3.26,7.81s1.09,5.68,3.26,7.85c2.17,2.18,4.79,3.26,7.85,3.26Z"/>
        <path class="cls-2" d="M1036.86,30.88c3.06,0,5.67-1.09,7.81-3.26,2.15-2.18,3.22-4.79,3.22-7.85s-1.07-5.67-3.22-7.81c-2.15-2.15-4.75-3.22-7.81-3.22s-5.68,1.07-7.85,3.22c-2.18,2.15-3.26,4.75-3.26,7.81s1.09,5.68,3.26,7.85c2.17,2.18,4.79,3.26,7.85,3.26Z"/>
        <path class="cls-2" d="M1204.65,30.88c3.06,0,5.67-1.09,7.81-3.26,2.15-2.18,3.22-4.79,3.22-7.85s-1.07-5.67-3.22-7.81c-2.15-2.15-4.75-3.22-7.81-3.22s-5.68,1.07-7.85,3.22c-2.18,2.15-3.26,4.75-3.26,7.81s1.09,5.68,3.26,7.85c2.17,2.18,4.79,3.26,7.85,3.26Z"/>
        <path class="cls-2" d="M1210.38,87.98v-.03c.01-.08,0-.06,0,.03Z"/>
        <path class="cls-2" d="M1272.12,43.1c-4.4-2.52-9.4-3.79-14.98-3.79-12.67,0-23.87,6.01-33.59,18.04-8.18,10.16-12.58,20.65-13.2,31.46.01-.39.02-.7.03-.84l-2.26,4.02c-1.89,3.12-4.07,6.1-6.54,8.94-2.48,2.85-4.55,4.27-6.22,4.27-.65,0-1.24-.17-1.77-.52-.54-.35-.81-1.11-.81-2.3s.48-3.76,1.45-7.73c.37-1.56,1.1-4.35,2.17-8.38l12.81-46.96-7.04,1.37c-2.45.48-6.63,1.06-12.52,1.73-3.91.45-7.19.79-9.87,1.03-.18-.31-.38-.61-.59-.91-1.53-2.15-3.9-3.22-7.12-3.22-4.61,0-9.42,3.33-14.41,9.99-2.84,3.81-6.63,10.28-11.35,19.41l-.72-.16,9.18-29.24c-7.52,1.4-12.85,2.31-15.98,2.74-4.83.7-10.77,1.26-17.79,1.69v4.35c3.28,0,5.59.3,6.93.89,1.34.59,2.01,1.91,2.01,3.95,0,2.31-1.67,9.56-4.99,21.75-.64,2.52-1.33,5.17-2.05,7.92-2.66,4.48-10.27,14.39-11.45,15.89-1.29,1.64-2.2,2.75-2.74,3.34-1.13,1.34-2.15,2.38-3.06,3.1-.91.73-1.85,1.09-2.82,1.09-.54,0-1.02-.19-1.45-.56-.43-.37-.64-1.05-.64-2.01,0-2.36.72-6.31,2.17-11.84.64-2.9,1.73-7.09,3.26-12.57l10.74-38.59-17.23,1.21-2.8,8.78c-.91-3.54-1.96-6.07-3.14-7.57-1.98-2.47-5.07-3.71-9.25-3.71-10.3,0-20.44,6.52-30.42,19.58-8.86,11.68-13.64,23.11-14.38,34.29-1.74,2.75-3.69,5.39-5.9,7.93-2.48,2.85-4.55,4.27-6.22,4.27-.65,0-1.24-.17-1.77-.52-.54-.35-.81-1.11-.81-2.3s.48-3.76,1.45-7.73c.37-1.56,1.1-4.35,2.17-8.38l12.81-46.96-7.04,1.37c-2.45.48-6.63,1.06-12.52,1.73-5.89.67-10.38,1.12-13.48,1.33v4.35c3.7.16,6.25.51,7.64,1.05,1.39.54,2.09,1.91,2.09,4.11,0,.38-.04.78-.12,1.21-.08.43-.17.86-.28,1.29l-6.92,25.28c-3.93,5.73-12.63,17.66-14.73,20-2.51,2.79-4.57,4.19-6.18,4.19-.48,0-1.02-.19-1.61-.56-.59-.38-.89-1.13-.89-2.26,0-1.29.48-3.9,1.45-7.82.27-1.18.99-3.95,2.18-8.3L1014.88,0c-8.99,1.66-14.92,2.7-17.8,3.1-2.88.4-8.4,1.01-16.57,1.81v4.35c3.65-.11,6.28.11,7.9.65,1.61.54,2.42,2.02,2.42,4.43,0,.81-.11,1.77-.32,2.9-.22,1.13-.57,2.61-1.05,4.43l-16.27,59.43c-4.66,6.64-12.71,17.68-14.57,19.82-2.48,2.85-4.55,4.27-6.22,4.27-.65,0-1.24-.17-1.77-.52-.54-.35-.81-1.11-.81-2.3s.48-3.76,1.45-7.73c.38-1.56,1.1-4.35,2.17-8.38l12.81-46.96-7.04,1.37c-2.45.48-6.63,1.06-12.52,1.73-5.89.67-10.38,1.12-13.48,1.33v4.35c3.7.16,6.25.51,7.64,1.05,1.39.54,2.09,1.91,2.09,4.11,0,.38-.04.78-.12,1.21-.08.43-.17.86-.28,1.29l-10.14,37.06c-.75,2.74-1.32,4.94-1.69,6.61-.64,2.9-.97,5.02-.97,6.36,0,3.81,1.2,6.65,3.59,8.5,2.39,1.85,5.09,2.78,8.11,2.78,5.32,0,10.33-2.26,15-6.77,1.86-1.79,8.16-10.43,13.81-18.42l-.25.93c-.75,2.79-1.29,4.92-1.61,6.37-.7,3.01-1.05,5.21-1.05,6.61,0,3.39,1.12,6.11,3.35,8.18,2.23,2.07,4.88,3.1,7.94,3.1,5.65,0,10.97-2.42,15.97-7.25,2.03-1.95,8.1-10.57,13.33-18.26l-.35,1.26c-.75,2.74-1.32,4.94-1.69,6.61-.64,2.9-.97,5.02-.97,6.36,0,3.81,1.2,6.65,3.59,8.5,2.39,1.85,5.09,2.78,8.11,2.78,5.32,0,10.33-2.26,15-6.77,2.06-1.98,4.8-5.34,8.19-10.02.58,5.63,2.37,9.79,5.41,12.44,3.76,3.28,7.81,4.91,12.16,4.91,4.83,0,9.22-1.53,13.17-4.59,3.95-3.06,7.37-6.79,10.27-11.2,1.29-1.88,2.24-3.3,2.86-4.27.26-.41.43-.69.54-.89-1.35,5.28-2.03,8.61-2.03,9.99,0,3.65,1.18,6.42,3.54,8.3,2.36,1.88,4.81,2.82,7.33,2.82,4.14,0,8.23-1.85,12.28-5.56,3.35-3.07,10.2-13.07,14.99-20.15-1.94,7.12-4.11,14.84-6.52,23.21h19.9c1.13-3.27,2.87-8.67,5.24-16.19,2.36-7.52,4.35-13.32,5.96-17.4,2.31-5.91,5.15-11.71,8.54-17.4,3.38-5.69,6.12-8.54,8.22-8.54.48,0,.87.11,1.17.32.29.22.58.48.85.81l1.53,1.93c.81,1.07,1.78,1.88,2.94,2.42,1.15.54,2.4.81,3.75.81,3.01,0,5.36-1.26,7.05-3.79,1.69-2.52,2.54-5.37,2.54-8.54,0-.39-.02-.76-.05-1.14,1,.16,1.8.35,2.39.58,1.39.54,2.09,1.91,2.09,4.11,0,.38-.04.78-.12,1.21-.08.43-.17.86-.28,1.29l-10.15,37.06c-.75,2.74-1.32,4.94-1.69,6.61-.64,2.9-.97,5.02-.97,6.36,0,3.81,1.2,6.65,3.59,8.5,2.39,1.85,5.09,2.78,8.11,2.78,5.32,0,10.33-2.26,15-6.77,2.63-2.52,6.34-7.27,11.12-14.17.81,7.06,3.58,12.25,8.32,15.54,5.72,3.97,11.77,5.96,18.17,5.96,12.51,0,23.63-5.99,33.35-17.96,8.91-11.01,13.37-22.37,13.37-34.08,0-10.58-3.87-18.07-11.6-22.48ZM1085.62,84.02c-6.92,14.55-13.12,21.8-18.59,21.75-2.15,0-3.88-.97-5.19-2.9-1.31-1.93-1.97-4.22-1.97-6.85,0-6.66,2.76-16.24,8.29-28.76,6.28-14.12,12.39-21.19,18.35-21.19,2.79,0,4.69,1.24,5.71,3.71.54,1.34.8,3.09.8,5.24,0,7.14-2.47,16.81-7.4,29ZM1257.06,88.77c-5.48,15.79-11.65,23.68-18.53,23.68-3.71,0-6.23-1.53-7.57-4.59-.7-1.61-1.05-3.84-1.05-6.69,0-8.43,2.07-19.01,6.2-31.74,5.37-16.76,12-25.13,19.9-25.13,3.38,0,5.69,1.34,6.93,4.03.64,1.45.97,3.46.97,6.04,0,9.67-2.28,21.13-6.85,34.4Z"/>
      </g>
      <g>
        <path class="cls-1" d="M15.83,107.64c4.93,3.05,10.67,4.57,17.24,4.57s11.63-1.45,16.04-4.36c2.62-1.73,4.86-3.91,6.75-6.53v8.36c0,3.57-.82,6.68-2.46,9.36-1.64,2.67-3.99,4.74-7.04,6.19-3.05,1.45-6.64,2.18-10.76,2.18s-8.44-.68-12.38-2.04c-3.94-1.36-7.65-3.26-11.12-5.7l-8.02,14.63c4.41,2.91,9.4,5.28,14.99,7.11,5.58,1.83,11.56,2.74,17.94,2.74,8.16,0,15.24-1.43,21.25-4.29,6-2.86,10.69-6.92,14.07-12.17,3.38-5.25,5.07-11.45,5.07-18.57V40.59h-21.53v10.21c-1.96-2.69-4.3-4.92-7.04-6.69-4.5-2.91-9.94-4.31-16.32-4.22-6.38,0-12.03,1.53-16.96,4.57-4.93,3.05-8.75,7.22-11.47,12.52-2.72,5.3-4.08,11.56-4.08,18.79s1.41,13.58,4.22,19.07c2.81,5.49,6.68,9.76,11.61,12.8ZM22.58,65.71c1.45-3.05,3.54-5.42,6.26-7.11,2.72-1.69,5.82-2.53,9.29-2.53s6.54.84,9.22,2.53c2.67,1.69,4.76,4.06,6.26,7.11,1.5,3.05,2.25,6.59,2.25,10.62s-.75,7.44-2.25,10.48c-1.5,3.05-3.59,5.42-6.26,7.11-2.67,1.69-5.75,2.53-9.22,2.53s-6.68-.84-9.36-2.53c-2.67-1.69-4.74-4.06-6.19-7.11-1.46-3.05-2.23-6.54-2.32-10.48.09-4.03.87-7.57,2.32-10.62Z"/>
        <path class="cls-1" d="M109.49,79.85c0-4.41,1.01-8.21,3.03-11.4,2.02-3.19,4.93-5.63,8.72-7.32,3.8-1.69,8.23-2.3,13.3-1.83v-19.56c-6.19,0-11.59,1.55-16.18,4.64-3.61,2.43-6.56,5.71-8.86,9.82v-13.62h-21.67v75.56h21.67v-36.3Z"/>
        <path class="cls-1" d="M153.97,112.07c6.14,3.19,13.25,4.78,21.32,4.78s15.15-1.59,21.25-4.78c6.1-3.19,10.83-7.69,14.21-13.51,3.38-5.82,5.07-12.57,5.07-20.26s-1.69-14.42-5.07-20.19c-3.38-5.77-8.11-10.25-14.21-13.44-6.1-3.19-13.18-4.78-21.25-4.78s-15.17,1.6-21.32,4.78c-6.15,3.19-10.91,7.67-14.28,13.44-3.38,5.77-5.07,12.5-5.07,20.19s1.69,14.45,5.07,20.26c3.38,5.82,8.14,10.32,14.28,13.51ZM158.68,67.39c1.59-3.24,3.82-5.74,6.68-7.53,2.86-1.78,6.17-2.67,9.92-2.67s7.04.89,9.85,2.67c2.81,1.78,5.02,4.29,6.61,7.53,1.59,3.24,2.39,6.97,2.39,11.19s-.8,7.95-2.39,11.19c-1.6,3.24-3.8,5.77-6.61,7.6-2.81,1.83-6.1,2.74-9.85,2.74s-7.06-.91-9.92-2.74c-2.86-1.83-5.09-4.36-6.68-7.6-1.6-3.24-2.39-6.96-2.39-11.19s.8-7.95,2.39-11.19Z"/>
        <polygon class="cls-1" points="260.93 116.15 277.25 65.21 293.43 116.15 315.1 116.15 342.68 40.59 321.29 40.59 304.69 95.47 288.08 40.59 266.84 40.59 250.51 95.47 233.63 40.59 211.54 40.59 239.26 116.15 260.93 116.15"/>
        <path class="cls-1" d="M358.86,30.88c3.47,0,6.31-1.13,8.51-3.38,2.2-2.25,3.31-5.07,3.31-8.44s-1.1-6.19-3.31-8.44c-2.21-2.25-5.04-3.38-8.51-3.38-3.28,0-6.05,1.13-8.3,3.38-2.25,2.25-3.38,5.07-3.38,8.44s1.13,6.19,3.38,8.44c2.25,2.25,5.02,3.38,8.3,3.38Z"/>
        <rect class="cls-1" x="348.03" y="40.59" width="21.67" height="75.56"/>
        <path class="cls-1" d="M401.74,78.86c0-5.72,1.55-10.46,4.64-14.21,3.1-3.75,7.32-5.67,12.66-5.77,4.6,0,8.23,1.41,10.9,4.22s4.01,6.71,4.01,11.68v41.37h21.67v-47.42c0-5.91-1.13-11.02-3.38-15.34-2.25-4.31-5.47-7.67-9.64-10.06-4.18-2.39-9.08-3.59-14.7-3.59-6.47,0-12.08,1.43-16.81,4.29-3.83,2.31-6.94,5.59-9.36,9.8v-13.25h-21.67v75.56h21.67v-37.29Z"/>
        <path class="cls-1" d="M479.48,107.64c4.93,3.05,10.67,4.57,17.24,4.57s11.63-1.45,16.04-4.36c2.62-1.73,4.86-3.91,6.75-6.53v8.36c0,3.57-.82,6.68-2.46,9.36-1.64,2.67-3.99,4.74-7.04,6.19-3.05,1.45-6.64,2.18-10.76,2.18s-8.44-.68-12.38-2.04c-3.94-1.36-7.65-3.26-11.12-5.7l-8.02,14.63c4.41,2.91,9.4,5.28,14.99,7.11,5.58,1.83,11.56,2.74,17.94,2.74,8.16,0,15.24-1.43,21.25-4.29,6-2.86,10.69-6.92,14.07-12.17,3.38-5.25,5.07-11.45,5.07-18.57V40.59h-21.53v10.21c-1.96-2.69-4.3-4.92-7.04-6.69-4.5-2.91-9.94-4.31-16.32-4.22-6.38,0-12.03,1.53-16.96,4.57-4.93,3.05-8.75,7.22-11.47,12.52-2.72,5.3-4.08,11.56-4.08,18.79s1.41,13.58,4.22,19.07c2.81,5.49,6.68,9.76,11.61,12.8ZM486.24,65.71c1.45-3.05,3.54-5.42,6.26-7.11,2.72-1.69,5.82-2.53,9.29-2.53s6.54.84,9.22,2.53c2.67,1.69,4.76,4.06,6.26,7.11,1.5,3.05,2.25,6.59,2.25,10.62s-.75,7.44-2.25,10.48c-1.5,3.05-3.59,5.42-6.26,7.11-2.67,1.69-5.75,2.53-9.22,2.53s-6.68-.84-9.36-2.53c-2.67-1.69-4.74-4.06-6.19-7.11-1.46-3.05-2.23-6.54-2.32-10.48.09-4.03.87-7.57,2.32-10.62Z"/>
      </g>
    </g>
  </g>
</svg>