<?xml version="1.0" encoding="UTF-8"?>
<svg id="Capa_2" data-name="Capa 2" xmlns="http://www.w3.org/2000/svg" viewBox="0 0 365.31 408.26">
  <defs>
    <style>
      .cls-1 {
        fill: #00abc8;
      }

      .cls-2 {
        fill: #00758d;
      }
    </style>
  </defs>
  <g id="Capa_1-2" data-name="Capa 1">
    <g>
      <g>
        <path class="cls-2" d="M324.34,285.75c-7.19,8.27-13.2,12.39-18.05,12.39-1.88,0-3.6-.5-5.15-1.52-1.56-1.01-2.34-3.23-2.34-6.66s1.4-10.91,4.21-22.45c1.09-4.52,3.19-12.63,6.31-24.32l37.18-136.33-20.43,3.98c-7.12,1.4-19.24,3.08-36.34,5.03-17.1,1.95-30.14,3.24-39.12,3.86v12.63c10.74.47,18.13,1.48,22.18,3.04,4.05,1.56,6.07,5.54,6.07,11.93,0,1.09-.12,2.26-.35,3.51-.23,1.25-.51,2.5-.82,3.74l-29.45,107.57c-2.19,7.95-3.82,14.34-4.91,19.17-1.87,8.42-2.81,14.58-2.81,18.47,0,11.07,3.47,19.29,10.41,24.67,6.94,5.38,14.79,8.07,23.53,8.07,15.46,0,29.97-6.55,43.55-19.64,8.27-7.95,20.22-23.38,35.83-46.3l-10.52-6.78c-5.47,9.04-11.8,17.7-18.99,25.96Z"/>
        <path class="cls-2" d="M355.96,9.35c-6.24-6.23-13.8-9.35-22.68-9.35s-16.49,3.12-22.8,9.35c-6.31,6.24-9.47,13.8-9.47,22.68s3.16,16.49,9.47,22.8c6.31,6.31,13.91,9.47,22.8,9.47s16.45-3.16,22.68-9.47c6.23-6.31,9.35-13.91,9.35-22.8s-3.12-16.45-9.35-22.68Z"/>
      </g>
      <path class="cls-1" d="M158.09,144.06c-5.54-7.6-12.17-13.92-19.91-18.93-12.74-8.23-28.14-12.21-46.19-11.95-18.06,0-34.05,4.32-47.99,12.94-13.94,8.63-24.76,20.45-32.45,35.44C3.85,176.57,0,194.29,0,214.73s3.98,38.43,11.95,53.96c7.96,15.53,18.92,27.61,32.85,36.24,13.94,8.63,30.19,12.94,48.78,12.94s32.91-4.11,45.4-12.34c7.41-4.89,13.76-11.07,19.11-18.49v23.66c0,10.09-2.33,18.91-6.97,26.48-4.65,7.57-11.29,13.4-19.91,17.52-8.63,4.11-18.78,6.17-30.46,6.17s-23.89-1.93-35.04-5.77c-11.15-3.85-21.64-9.23-31.46-16.13l-22.7,41.41c12.48,8.23,26.61,14.93,42.41,20.11,15.79,5.18,32.72,7.77,50.77,7.77,23.1,0,43.14-4.05,60.13-12.15,16.99-8.1,30.26-19.58,39.82-34.45,9.56-14.87,14.34-32.39,14.34-52.56V115.18h-60.93v28.88ZM151.72,245.99c-4.25,8.63-10.15,15.33-17.72,20.11-7.57,4.78-16.26,7.17-26.08,7.17s-18.92-2.39-26.48-7.17c-7.57-4.78-13.41-11.48-17.52-20.11-4.12-8.62-6.31-18.52-6.57-29.67.26-11.41,2.45-21.44,6.57-30.07,4.11-8.62,10.02-15.33,17.72-20.11,7.7-4.78,16.46-7.17,26.28-7.17s18.52,2.39,26.08,7.17c7.57,4.78,13.47,11.49,17.72,20.11,4.24,8.63,6.37,18.65,6.37,30.07s-2.13,21.04-6.37,29.67Z"/>
    </g>
  </g>
</svg>